<mxfile host="app.diagrams.net" modified="2022-08-11T03:34:40.575Z" agent="5.0 (X11; Linux x86_64) AppleWebKit/537.36 (KHTML, like Gecko) Chrome/103.0.0.0 Safari/537.36" etag="N0C9VmQ2jshdgsNKY1BN" version="20.2.3" type="github">
  <diagram id="3NLDDvWX0bf8imCqcWts" name="第 1 页">
    <mxGraphModel dx="1422" dy="800" grid="1" gridSize="10" guides="1" tooltips="1" connect="1" arrows="1" fold="1" page="1" pageScale="1" pageWidth="827" pageHeight="1169" math="0" shadow="0">
      <root>
        <mxCell id="0" />
        <mxCell id="1" parent="0" />
        <mxCell id="w5T0Ui5JZ-jCRDqWNCSB-8" style="edgeStyle=orthogonalEdgeStyle;curved=1;rounded=0;sketch=1;hachureGap=4;orthogonalLoop=1;jettySize=auto;html=1;exitX=0.5;exitY=1;exitDx=0;exitDy=0;fontFamily=Architects Daughter;fontSource=https%3A%2F%2Ffonts.googleapis.com%2Fcss%3Ffamily%3DArchitects%2BDaughter;fontSize=14;endArrow=open;startSize=14;endSize=14;sourcePerimeterSpacing=8;targetPerimeterSpacing=8;entryX=0.5;entryY=0;entryDx=0;entryDy=0;" edge="1" parent="1" source="w5T0Ui5JZ-jCRDqWNCSB-3" target="w5T0Ui5JZ-jCRDqWNCSB-4">
          <mxGeometry relative="1" as="geometry" />
        </mxCell>
        <mxCell id="w5T0Ui5JZ-jCRDqWNCSB-9" style="edgeStyle=orthogonalEdgeStyle;curved=1;rounded=0;sketch=1;hachureGap=4;orthogonalLoop=1;jettySize=auto;html=1;exitX=0.5;exitY=1;exitDx=0;exitDy=0;entryX=0.5;entryY=0;entryDx=0;entryDy=0;fontFamily=Architects Daughter;fontSource=https%3A%2F%2Ffonts.googleapis.com%2Fcss%3Ffamily%3DArchitects%2BDaughter;fontSize=14;endArrow=open;startSize=14;endSize=14;sourcePerimeterSpacing=8;targetPerimeterSpacing=8;" edge="1" parent="1" source="w5T0Ui5JZ-jCRDqWNCSB-3" target="w5T0Ui5JZ-jCRDqWNCSB-5">
          <mxGeometry relative="1" as="geometry" />
        </mxCell>
        <mxCell id="w5T0Ui5JZ-jCRDqWNCSB-10" style="edgeStyle=orthogonalEdgeStyle;curved=1;rounded=0;sketch=1;hachureGap=4;orthogonalLoop=1;jettySize=auto;html=1;exitX=0.5;exitY=1;exitDx=0;exitDy=0;entryX=0.5;entryY=0;entryDx=0;entryDy=0;fontFamily=Architects Daughter;fontSource=https%3A%2F%2Ffonts.googleapis.com%2Fcss%3Ffamily%3DArchitects%2BDaughter;fontSize=14;endArrow=open;startSize=14;endSize=14;sourcePerimeterSpacing=8;targetPerimeterSpacing=8;" edge="1" parent="1" source="w5T0Ui5JZ-jCRDqWNCSB-3" target="w5T0Ui5JZ-jCRDqWNCSB-6">
          <mxGeometry relative="1" as="geometry" />
        </mxCell>
        <mxCell id="w5T0Ui5JZ-jCRDqWNCSB-3" value="&lt;font style=&quot;font-size: 14px; line-height: 1;&quot;&gt;1&lt;br&gt;boss wang&lt;/font&gt;" style="ellipse;whiteSpace=wrap;html=1;sketch=1;hachureGap=4;fontFamily=Architects Daughter;fontSource=https%3A%2F%2Ffonts.googleapis.com%2Fcss%3Ffamily%3DArchitects%2BDaughter;fontSize=20;" vertex="1" parent="1">
          <mxGeometry x="344" y="150" width="140" height="50" as="geometry" />
        </mxCell>
        <mxCell id="w5T0Ui5JZ-jCRDqWNCSB-12" style="edgeStyle=orthogonalEdgeStyle;curved=1;rounded=0;sketch=1;hachureGap=4;orthogonalLoop=1;jettySize=auto;html=1;exitX=0.5;exitY=1;exitDx=0;exitDy=0;entryX=0.5;entryY=0;entryDx=0;entryDy=0;fontFamily=Architects Daughter;fontSource=https%3A%2F%2Ffonts.googleapis.com%2Fcss%3Ffamily%3DArchitects%2BDaughter;fontSize=14;endArrow=open;startSize=14;endSize=14;sourcePerimeterSpacing=8;targetPerimeterSpacing=8;" edge="1" parent="1" source="w5T0Ui5JZ-jCRDqWNCSB-4" target="w5T0Ui5JZ-jCRDqWNCSB-7">
          <mxGeometry relative="1" as="geometry" />
        </mxCell>
        <mxCell id="w5T0Ui5JZ-jCRDqWNCSB-4" value="2&lt;br&gt;zhang san" style="ellipse;whiteSpace=wrap;html=1;labelBackgroundColor=#ffffff;sketch=1;hachureGap=4;fontFamily=Architects Daughter;fontSource=https%3A%2F%2Ffonts.googleapis.com%2Fcss%3Ffamily%3DArchitects%2BDaughter;fontSize=14;" vertex="1" parent="1">
          <mxGeometry x="149" y="310" width="130" height="40" as="geometry" />
        </mxCell>
        <mxCell id="w5T0Ui5JZ-jCRDqWNCSB-16" style="edgeStyle=orthogonalEdgeStyle;curved=1;rounded=0;sketch=1;hachureGap=4;orthogonalLoop=1;jettySize=auto;html=1;exitX=0.5;exitY=1;exitDx=0;exitDy=0;entryX=0.5;entryY=0;entryDx=0;entryDy=0;fontFamily=Architects Daughter;fontSource=https%3A%2F%2Ffonts.googleapis.com%2Fcss%3Ffamily%3DArchitects%2BDaughter;fontSize=14;endArrow=open;startSize=14;endSize=14;sourcePerimeterSpacing=8;targetPerimeterSpacing=8;" edge="1" parent="1" source="w5T0Ui5JZ-jCRDqWNCSB-5" target="w5T0Ui5JZ-jCRDqWNCSB-15">
          <mxGeometry relative="1" as="geometry" />
        </mxCell>
        <mxCell id="w5T0Ui5JZ-jCRDqWNCSB-5" value="3&lt;br&gt;li si" style="ellipse;whiteSpace=wrap;html=1;labelBackgroundColor=#ffffff;sketch=1;hachureGap=4;fontFamily=Architects Daughter;fontSource=https%3A%2F%2Ffonts.googleapis.com%2Fcss%3Ffamily%3DArchitects%2BDaughter;fontSize=14;" vertex="1" parent="1">
          <mxGeometry x="349" y="310" width="130" height="40" as="geometry" />
        </mxCell>
        <mxCell id="w5T0Ui5JZ-jCRDqWNCSB-6" value="4&lt;br&gt;wang wu" style="ellipse;whiteSpace=wrap;html=1;labelBackgroundColor=#ffffff;sketch=1;hachureGap=4;fontFamily=Architects Daughter;fontSource=https%3A%2F%2Ffonts.googleapis.com%2Fcss%3Ffamily%3DArchitects%2BDaughter;fontSize=14;" vertex="1" parent="1">
          <mxGeometry x="549" y="310" width="130" height="40" as="geometry" />
        </mxCell>
        <mxCell id="w5T0Ui5JZ-jCRDqWNCSB-14" style="edgeStyle=orthogonalEdgeStyle;curved=1;rounded=0;sketch=1;hachureGap=4;orthogonalLoop=1;jettySize=auto;html=1;exitX=0.5;exitY=1;exitDx=0;exitDy=0;entryX=0.5;entryY=0;entryDx=0;entryDy=0;fontFamily=Architects Daughter;fontSource=https%3A%2F%2Ffonts.googleapis.com%2Fcss%3Ffamily%3DArchitects%2BDaughter;fontSize=14;endArrow=open;startSize=14;endSize=14;sourcePerimeterSpacing=8;targetPerimeterSpacing=8;" edge="1" parent="1" source="w5T0Ui5JZ-jCRDqWNCSB-7" target="w5T0Ui5JZ-jCRDqWNCSB-11">
          <mxGeometry relative="1" as="geometry" />
        </mxCell>
        <mxCell id="w5T0Ui5JZ-jCRDqWNCSB-7" value="5&lt;br&gt;ma liu" style="ellipse;whiteSpace=wrap;html=1;labelBackgroundColor=#ffffff;sketch=1;hachureGap=4;fontFamily=Architects Daughter;fontSource=https%3A%2F%2Ffonts.googleapis.com%2Fcss%3Ffamily%3DArchitects%2BDaughter;fontSize=14;" vertex="1" parent="1">
          <mxGeometry x="110" y="410" width="130" height="40" as="geometry" />
        </mxCell>
        <mxCell id="w5T0Ui5JZ-jCRDqWNCSB-11" value="7&lt;br&gt;pang wa" style="ellipse;whiteSpace=wrap;html=1;labelBackgroundColor=#ffffff;sketch=1;hachureGap=4;fontFamily=Architects Daughter;fontSource=https%3A%2F%2Ffonts.googleapis.com%2Fcss%3Ffamily%3DArchitects%2BDaughter;fontSize=14;" vertex="1" parent="1">
          <mxGeometry x="80" y="500" width="130" height="40" as="geometry" />
        </mxCell>
        <mxCell id="w5T0Ui5JZ-jCRDqWNCSB-15" value="6&lt;br&gt;wang gang" style="ellipse;whiteSpace=wrap;html=1;labelBackgroundColor=#ffffff;sketch=1;hachureGap=4;fontFamily=Architects Daughter;fontSource=https%3A%2F%2Ffonts.googleapis.com%2Fcss%3Ffamily%3DArchitects%2BDaughter;fontSize=14;" vertex="1" parent="1">
          <mxGeometry x="349" y="420" width="130" height="40" as="geometry" />
        </mxCell>
      </root>
    </mxGraphModel>
  </diagram>
</mxfile>
